<?xml version="1.0" encoding="UTF-8"?>
<svg id="Variantes" xmlns="http://www.w3.org/2000/svg" xmlns:xlink="http://www.w3.org/1999/xlink" viewBox="0 0 255.12 141.73">
  <defs>
    <style>
      .cls-1 {
        fill: url(#Degradado_sin_nombre_16);
      }

      .cls-2 {
        fill: #f8b133;
      }

      .cls-3 {
        fill: #ff0;
      }
    </style>
    <linearGradient id="Degradado_sin_nombre_16" data-name="Degradado sin nombre 16" x1="161.35" y1="70.31" x2="202.3" y2="70.31" gradientUnits="userSpaceOnUse">
      <stop offset=".42" stop-color="#ff0"/>
      <stop offset=".47" stop-color="#ffff0a" stop-opacity=".96"/>
      <stop offset=".55" stop-color="#ffff26" stop-opacity=".85"/>
      <stop offset=".67" stop-color="#ffff53" stop-opacity=".67"/>
      <stop offset=".8" stop-color="#ffff92" stop-opacity=".43"/>
      <stop offset=".95" stop-color="#ffffe0" stop-opacity=".12"/>
      <stop offset="1" stop-color="#fff" stop-opacity="0"/>
    </linearGradient>
  </defs>
  <path d="M188.09,80.56c-4.31,6.85-10.58,10.26-18.79,10.26-5.56,0-10.22-1.66-14-4.99-3.3,3.33-7.47,5-12.58,5-4.79,0-9.22-1.45-11.56-3.74v15.26c0,.43-.46.71-.83.51-4.22-2.26-7.93-5.4-10.89-9.16l-.02-.02c-.75-1-1.17-2.22-1.17-3.46v-22.02c-.02-.89-.14-1.8-.29-2.69-.38-2.05-1.36-3.68-3.51-4.19-2.28-.55-4.3-.02-5.85,1.8-1.46,1.69-1.89,5.02-1.96,7.16-.06,3.19-.02,6.38-.02,9.56-.09.09-.2.18-.31.28-3.71-3.63-8.28-3.99-13.21-3.57-.03-.6-.06-1.11-.08-1.6-.06-2.54.02-6.34-.25-8.87-.38-3.8-2.66-5.54-6.34-5.16-2.2.23-3.59,1.6-4.2,3.53-.54,1.74-.74,4.87-.85,6.7-.14,2.28-.06,4.57-.02,6.85.02.83-.25,1.15-1.11,1.15-5.11.05-9.01-2.28-12.09-6.16-.29-.37-.42-.95-.42-1.43-.03-5.91,0-13.07-.03-18.99,0-.94.25-1.28,1.23-1.26,3.76.05,7.51.05,11.27,0,.83,0,1.19.23,1.14,1.11-.06.92-.02,1.86-.02,3.17,3.59-3.68,7.68-5.25,12.46-4.9,4.77.37,8.61,2.34,11.27,7.05.18-.45.25-.69.38-.91,2.53-3.85,6.17-5.79,10.7-6.11,3.34-.25,6.64,0,9.7,1.6,1.8.95,3.16,2.22,4.1,3.76l.02-.02.8-1.26c2.66-3.33,6.65-4.96,11.93-4.96s9.35,1.69,12.66,5.07c3.91-3.39,8.68-5.08,14.34-5.08,4.1,0,7.75,1,10.99,2.96,3.22,2,5.62,4.5,7.27,7.56.03,0,.03.03.03.03l-9.98,7.08c-1.46-3.6-4.59-5.76-8.32-5.76-2.4,0-4.43.85-5.97,2.48-1.6,1.65-2.39,3.7-2.39,6.13s.79,4.59,2.39,6.25c1.54,1.68,3.57,2.48,5.97,2.48,3.6,0,6.48-1.88,8.61-5.61l9.76,7.13Z"/>
  <path class="cls-3" d="M137.73,65.09l.3,11.7c.03,1.13,1.26,1.81,2.23,1.24l10.94-6.44c1.03-.6.96-2.11-.12-2.62l-11.24-5.26c-1-.47-2.14.28-2.11,1.38Z"/>
  <path class="cls-1" d="M202.3,50.11v40.4l-23.98-17.08c-2.12,3.72-5.01,5.61-8.6,5.61-2.41,0-4.43-.81-5.98-2.49-1.6-1.65-2.39-3.72-2.39-6.24s.79-4.49,2.39-6.14c1.55-1.63,3.57-2.47,5.98-2.47,3.72,0,6.85,2.15,8.32,5.74l9.97-7.08s0-.03-.03-.03l14.32-10.23Z"/>
  <path class="cls-2" d="M188,60.37l-9.97,7.08,9.94-7.11s.03.03.03.03Z"/>
</svg>