<?xml version="1.0" encoding="UTF-8"?>
<svg id="Variantes" xmlns="http://www.w3.org/2000/svg" viewBox="0 0 141.73 255.12">
  <path d="M111.23,61.22c-4.8-2.21-9.72-2.83-14.83-2.45-6.92.49-12.5,3.46-16.36,9.35-.21.33-.31.71-.59,1.39-4.07-7.2-9.93-10.22-17.23-10.78-7.3-.54-13.56,1.86-19.05,7.49,0-2-.07-3.44.02-4.85.07-1.34-.47-1.69-1.74-1.69-5.74.07-11.49.07-17.23,0-1.51-.02-1.88.49-1.88,1.93.05,9.04,0,19.99.05,29.03,0,.73.19,1.62.64,2.19,4.71,5.93,10.66,9.49,18.48,9.42,1.32,0,1.72-.49,1.7-1.77-.07-3.48-.19-6.99.02-10.48.16-2.8.47-7.58,1.29-10.24.94-2.94,3.06-5.04,6.43-5.39,5.63-.59,9.11,2.07,9.7,7.89.4,3.86.28,9.68.38,13.56.02.75.07,1.53.12,2.45,7.53-.64,14.53-.09,20.2,5.46.16-.14.33-.28.47-.42,0-4.87-.07-9.75.02-14.62.09-3.27.75-8.36,2.99-10.95,2.38-2.78,5.46-3.6,8.95-2.75,3.3.78,4.78,3.27,5.37,6.4.24,1.37.42,2.75.45,4.12v34.59c0,1.65.65,3.23,1.81,4.4h0c4.52,5.74,10.19,10.55,16.64,14.01.57.31,1.27-.12,1.27-.78v-63.4c0-5.16-2.61-10.1-7.12-12.6-.31-.17-.62-.33-.95-.48Z"/>
</svg>